%TF.GenerationSoftware,KiCad,Pcbnew,4.0.1-2.fc23-product*%
%TF.CreationDate,2016-03-10T00:19:46+01:00*%
%TF.ProjectId,getting_used_to,67657474696E675F757365645F746F2E,rev?*%
%TF.FileFunction,Copper,L2,Bot,Signal*%
%FSLAX46Y46*%
G04 Gerber Fmt 4.6, Leading zero omitted, Abs format (unit mm)*
G04 Created by KiCad (PCBNEW 4.0.1-2.fc23-product) date Thu 10 Mar 2016 12:19:46 AM CET*
%MOMM*%
G01*
G04 APERTURE LIST*
%ADD10C,0.100000*%
%ADD11R,1.727200X1.727200*%
%ADD12O,1.727200X1.727200*%
%ADD13R,1.727200X2.032000*%
%ADD14O,1.727200X2.032000*%
%ADD15R,2.000000X2.000000*%
%ADD16C,0.550000*%
%ADD17C,0.762000*%
G04 APERTURE END LIST*
D10*
D11*
X6985000Y24130000D03*
D12*
X6985000Y21590000D03*
X4445000Y24130000D03*
X4445000Y21590000D03*
X1905000Y24130000D03*
X1905000Y21590000D03*
D13*
X3175000Y31750000D03*
D14*
X5715000Y31750000D03*
X8255000Y31750000D03*
X10795000Y31750000D03*
X13335000Y31750000D03*
X15875000Y31750000D03*
D15*
X17145000Y24130000D03*
X17145000Y21590000D03*
X14605000Y24130000D03*
X14605000Y21590000D03*
X12065000Y24130000D03*
X12065000Y21590000D03*
D16*
X6985000Y24130000D02*
X6985000Y26670000D01*
X8255000Y27940000D02*
X8255000Y31750000D01*
X6985000Y26670000D02*
X8255000Y27940000D01*
X8890000Y22225000D02*
X8890000Y26035000D01*
X6985000Y21590000D02*
X8255000Y21590000D01*
X8255000Y21590000D02*
X8890000Y22225000D01*
X10795000Y28575000D02*
X10795000Y31750000D01*
X8890000Y26670000D02*
X10795000Y28575000D01*
X8890000Y26035000D02*
X8890000Y26670000D01*
D17*
X17145000Y21590000D02*
X17145000Y20320000D01*
X13335000Y16510000D02*
X17145000Y20320000D01*
X1905000Y20320000D02*
X1905000Y21590000D01*
X1905000Y20320000D02*
X5715000Y16510000D01*
X5715000Y16510000D02*
X13335000Y16510000D01*
X1905000Y24130000D02*
X1905000Y21590000D01*
X17145000Y24130000D02*
X17145000Y21590000D01*
X1905000Y24130000D02*
X1905000Y26670000D01*
X3175000Y27940000D02*
X3175000Y31750000D01*
X1905000Y26670000D02*
X3175000Y27940000D01*
X4445000Y21590000D02*
X4445000Y20320000D01*
X14605000Y20320000D02*
X14605000Y21590000D01*
X13335000Y19050000D02*
X14605000Y20320000D01*
X5715000Y19050000D02*
X13335000Y19050000D01*
X4445000Y20320000D02*
X5715000Y19050000D01*
X14605000Y24130000D02*
X14605000Y21590000D01*
X4445000Y24130000D02*
X4445000Y21590000D01*
X4445000Y24130000D02*
X4445000Y26670000D01*
X5715000Y27940000D02*
X5715000Y31750000D01*
X4445000Y26670000D02*
X5715000Y27940000D01*
D16*
X10160000Y25400000D02*
X10160000Y26035000D01*
X10795000Y21590000D02*
X10160000Y22225000D01*
X10160000Y22225000D02*
X10160000Y25400000D01*
X12065000Y21590000D02*
X10795000Y21590000D01*
X13335000Y29210000D02*
X13335000Y31750000D01*
X10160000Y26035000D02*
X13335000Y29210000D01*
X12065000Y24130000D02*
X12065000Y26035000D01*
X15875000Y29845000D02*
X15875000Y31750000D01*
X12065000Y26035000D02*
X15875000Y29845000D01*
X12065000Y24130000D02*
X12065000Y24765000D01*
M02*
