  0
SECTION
  2
HEADER
  9
$ACADVER
  1
AC1014
  9
$HANDSEED
  5
FFFF
  9
$MEASUREMENT
 70
     1
  0
ENDSEC
  0
SECTION
  2
TABLES
  0
TABLE
  2
VPORT
  5
8
330
0
100
AcDbSymbolTable
 70
     4
  0
VPORT
  5
2E
330
8
100
AcDbSymbolTableRecord
100
AcDbViewportTableRecord
  2
*ACTIVE
 70
     0
 10
0.0
 20
0.0
 11
1.0
 21
1.0
 12
210.0
 22
148.5
 13
0.0
 23
0.0
 14
10.0
 24
10.0
 15
10.0
 25
10.0
 16
0.0
 26
0.0
 36
1.0
 17
0.0
 27
0.0
 37
0.0
 40
341.0
 41
1.24
 42
50.0
 43
0.0
 44
0.0
 50
0.0
 51
0.0
 71
     0
 72
   100
 73
     1
 74
     3
 75
     0
 76
     0
 77
     0
 78
     0
  0
ENDTAB
  0
TABLE
  2
LTYPE
  5
5
330
0
100
AcDbSymbolTable
 70
     1
  0
LTYPE
  5
14
330
5
100
AcDbSymbolTableRecord
100
AcDbLinetypeTableRecord
  2
BYBLOCK
 70
     0
  3

 72
    65
 73
     0
 40
0.0
  0
LTYPE
  5
15
330
5
100
AcDbSymbolTableRecord
100
AcDbLinetypeTableRecord
  2
BYLAYER
 70
     0
  3

 72
    65
 73
     0
 40
0.0
  0
LTYPE
  5
16
330
5
100
AcDbSymbolTableRecord
100
AcDbLinetypeTableRecord
  2
CONTINUOUS
 70
     0
  3
Solid line
 72
    65
 73
     0
 40
0.0
  0
ENDTAB
  0
TABLE
  2
LAYER
  5
2
100
AcDbSymbolTable
 70
2
  0
LAYER
  5
50
100
AcDbSymbolTableRecord
100
AcDbLayerTableRecord
  2
0
 70
0
  6
CONTINUOUS
  0
LAYER
  5
51
100
AcDbSymbolTableRecord
100
AcDbLayerTableRecord
  2
Layer_1
 70
0
  6
CONTINUOUS
  0
ENDTAB
  0
TABLE
  2
STYLE
  5
3
330
0
100
AcDbSymbolTable
 70
     1
  0
STYLE
  5
11
330
3
100
AcDbSymbolTableRecord
100
AcDbTextStyleTableRecord
  2
STANDARD
 70
     0
 40
0.0
 41
1.0
 50
0.0
 71
     0
 42
2.5
  3
txt
  4

  0
ENDTAB
  0
TABLE
  2
VIEW
  5
6
330
0
100
AcDbSymbolTable
 70
     0
  0
ENDTAB
  0
TABLE
  2
UCS
  5
7
330
0
100
AcDbSymbolTable
 70
     0
  0
ENDTAB
  0
TABLE
  2
APPID
  5
9
330
0
100
AcDbSymbolTable
 70
     2
  0
APPID
  5
12
330
9
100
AcDbSymbolTableRecord
100
AcDbRegAppTableRecord
  2
ACAD
 70
     0
  0
ENDTAB
  0
TABLE
  2
DIMSTYLE
  5
A
330
0
100
AcDbSymbolTable
 70
     1
  0
DIMSTYLE
105
27
330
A
100
AcDbSymbolTableRecord
100
AcDbDimStyleTableRecord
  2
ISO-25
 70
     0
  3

  4

  5

  6

  7

 40
1.0
 41
2.5
 42
0.625
 43
3.75
 44
1.25
 45
0.0
 46
0.0
 47
0.0
 48
0.0
140
2.5
141
2.5
142
0.0
143
0.03937007874016
144
1.0
145
0.0
146
1.0
147
0.625
 71
     0
 72
     0
 73
     0
 74
     0
 75
     0
 76
     0
 77
     1
 78
     8
170
     0
171
     3
172
     1
173
     0
174
     0
175
     0
176
     0
177
     0
178
     0
270
     2
271
     2
272
     2
273
     2
274
     3
340
11
275
     0
280
     0
281
     0
282
     0
283
     0
284
     8
285
     0
286
     0
287
     3
288
     0
  0
ENDTAB
  0
TABLE
  2
BLOCK_RECORD
  5
1
330
0
100
AcDbSymbolTable
 70
     1
  0
BLOCK_RECORD
  5
1F
330
1
100
AcDbSymbolTableRecord
100
AcDbBlockTableRecord
  2
*MODEL_SPACE
  0
BLOCK_RECORD
  5
1B
330
1
100
AcDbSymbolTableRecord
100
AcDbBlockTableRecord
  2
*PAPER_SPACE
  0
ENDTAB
  0
ENDSEC
  0
SECTION
  2
BLOCKS
  0
BLOCK
  5
20
330
1F
100
AcDbEntity
  8
0
100
AcDbBlockBegin
  2
*MODEL_SPACE
 70
     0
 10
0.0
 20
0.0
 30
0.0
  3
*MODEL_SPACE
  1

  0
ENDBLK
  5
21
330
1F
100
AcDbEntity
  8
0
100
AcDbBlockEnd
  0
BLOCK
  5
1C
330
1B
100
AcDbEntity
 67
     1
  8
0
100
AcDbBlockBegin
  2
*PAPER_SPACE
  1

  0
ENDBLK
  5
1D
330
1B
100
AcDbEntity
 67
     1
  8
0
100
AcDbBlockEnd
  0
ENDSEC
  0
SECTION
  2
ENTITIES
  0
LWPOLYLINE
  5
100
100
AcDbEntity
  8
Layer_1
 62
7
100
AcDbPolyline
 90
5
 70
1
 10
49.590475
 20
226.987302
 30
0.0
 10
152.399997
 20
226.987302
 30
0.0
 10
152.399997
 20
149.174602
 30
0.0
 10
49.590475
 20
149.174602
 30
0.0
 10
49.590475
 20
226.987302
 30
0.0
  0
LWPOLYLINE
  5
101
100
AcDbEntity
  8
Layer_1
 62
7
100
AcDbPolyline
 90
25
 70
1
 10
122.161901
 20
180.622221
 30
0.0
 10
114.917042
 20
178.494861
 30
0.0
 10
113.143451
 20
171.155375
 30
0.0
 10
105.805534
 20
172.935455
 30
0.0
 10
100.599819
 20
167.466071
 30
0.0
 10
95.135037
 20
172.676624
 30
0.0
 10
87.892060
 20
170.542857
 30
0.0
 10
85.764700
 20
177.787716
 30
0.0
 10
78.425215
 20
179.561308
 30
0.0
 10
80.205295
 20
186.899224
 30
0.0
 10
74.735910
 20
192.104940
 30
0.0
 10
79.946463
 20
197.569722
 30
0.0
 10
77.812697
 20
204.812698
 30
0.0
 10
85.057556
 20
206.940058
 30
0.0
 10
86.831150
 20
214.279543
 30
0.0
 10
94.169063
 20
212.499463
 30
0.0
 10
99.374782
 20
217.968848
 30
0.0
 10
104.839561
 20
212.758295
 30
0.0
 10
112.082538
 20
214.892062
 30
0.0
 10
114.209898
 20
207.647203
 30
0.0
 10
121.549383
 20
205.873608
 30
0.0
 10
119.769303
 20
198.535695
 30
0.0
 10
125.238688
 20
193.329976
 30
0.0
 10
120.028135
 20
187.865197
 30
0.0
 10
122.161901
 20
180.622221
 30
0.0
  0
SPLINE
  5
102
100
AcDbEntity
  8
Layer_1
 62
7
100
AcDbSpline
 70
8
 71
3
 72
8
 73
4
 74
0
 40
0
 40
0
 40
0
 40
0
 40
1
 40
1
 40
1
 40
1
 10
71.443263
 20
161.774523
 30
0.0
 10
70.991265
 20
161.976636
 30
0.0
 10
70.550293
 20
162.129139
 30
0.0
 10
70.120346
 20
162.232034
 30
0.0
  0
SPLINE
  5
103
100
AcDbEntity
  8
Layer_1
 62
7
100
AcDbSpline
 70
8
 71
3
 72
8
 73
4
 74
0
 40
0
 40
0
 40
0
 40
0
 40
1
 40
1
 40
1
 40
1
 10
70.120346
 20
162.232034
 30
0.0
 10
69.690398
 20
162.334926
 30
0.0
 10
69.284335
 20
162.386373
 30
0.0
 10
68.902159
 20
162.386373
 30
0.0
  0
SPLINE
  5
104
100
AcDbEntity
  8
Layer_1
 62
7
100
AcDbSpline
 70
8
 71
3
 72
8
 73
4
 74
0
 40
0
 40
0
 40
0
 40
0
 40
1
 40
1
 40
1
 40
1
 10
68.902159
 20
162.386373
 30
0.0
 10
68.395042
 20
162.386373
 30
0.0
 10
68.020216
 20
162.316553
 30
0.0
 10
67.777682
 20
162.176913
 30
0.0
  0
SPLINE
  5
105
100
AcDbEntity
  8
Layer_1
 62
7
100
AcDbSpline
 70
8
 71
3
 72
8
 73
4
 74
0
 40
0
 40
0
 40
0
 40
0
 40
1
 40
1
 40
1
 40
1
 10
67.777682
 20
162.176913
 30
0.0
 10
67.535146
 20
162.037271
 30
0.0
 10
67.413878
 20
161.820460
 30
0.0
 10
67.413878
 20
161.526478
 30
0.0
  0
SPLINE
  5
106
100
AcDbEntity
  8
Layer_1
 62
7
100
AcDbSpline
 70
8
 71
3
 72
8
 73
4
 74
0
 40
0
 40
0
 40
0
 40
0
 40
1
 40
1
 40
1
 40
1
 10
67.413878
 20
161.526478
 30
0.0
 10
67.413878
 20
161.305991
 30
0.0
 10
67.494723
 20
161.133277
 30
0.0
 10
67.656414
 20
161.008335
 30
0.0
  0
SPLINE
  5
107
100
AcDbEntity
  8
Layer_1
 62
7
100
AcDbSpline
 70
8
 71
3
 72
8
 73
4
 74
0
 40
0
 40
0
 40
0
 40
0
 40
1
 40
1
 40
1
 40
1
 10
67.656414
 20
161.008335
 30
0.0
 10
67.821777
 20
160.887068
 30
0.0
 10
68.119433
 20
160.782337
 30
0.0
 10
68.549382
 20
160.694143
 30
0.0
  0
LWPOLYLINE
  5
108
100
AcDbEntity
  8
Layer_1
 62
7
100
AcDbPolyline
 90
2
 70
1
 10
71.443263
 20
163.516365
 30
0.0
 10
71.443263
 20
161.774523
 30
0.0
  0
SPLINE
  5
109
100
AcDbEntity
  8
Layer_1
 62
7
100
AcDbSpline
 70
8
 71
3
 72
8
 73
4
 74
0
 40
0
 40
0
 40
0
 40
0
 40
1
 40
1
 40
1
 40
1
 10
69.453376
 20
160.512242
 30
0.0
 10
70.368393
 20
160.328504
 30
0.0
 10
71.018827
 20
160.049222
 30
0.0
 10
71.404678
 20
159.674395
 30
0.0
  0
SPLINE
  5
10a
100
AcDbEntity
  8
Layer_1
 62
7
100
AcDbSpline
 70
8
 71
3
 72
8
 73
4
 74
0
 40
0
 40
0
 40
0
 40
0
 40
1
 40
1
 40
1
 40
1
 10
71.404678
 20
159.674395
 30
0.0
 10
71.790528
 20
159.299568
 30
0.0
 10
71.983453
 20
158.766727
 30
0.0
 10
71.983453
 20
158.075871
 30
0.0
  0
SPLINE
  5
10b
100
AcDbEntity
  8
Layer_1
 62
7
100
AcDbSpline
 70
8
 71
3
 72
8
 73
4
 74
0
 40
0
 40
0
 40
0
 40
0
 40
1
 40
1
 40
1
 40
1
 10
71.983453
 20
158.075871
 30
0.0
 10
71.983453
 20
157.168203
 30
0.0
 10
71.713358
 20
156.492046
 30
0.0
 10
71.173168
 20
156.047399
 30
0.0
  0
SPLINE
  5
10c
100
AcDbEntity
  8
Layer_1
 62
7
100
AcDbSpline
 70
8
 71
3
 72
8
 73
4
 74
0
 40
0
 40
0
 40
0
 40
0
 40
1
 40
1
 40
1
 40
1
 10
71.173168
 20
156.047399
 30
0.0
 10
70.636650
 20
155.606427
 30
0.0
 10
69.815339
 20
155.385941
 30
0.0
 10
68.709235
 20
155.385941
 30
0.0
  0
SPLINE
  5
10d
100
AcDbEntity
  8
Layer_1
 62
7
100
AcDbSpline
 70
8
 71
3
 72
8
 73
4
 74
0
 40
0
 40
0
 40
0
 40
0
 40
1
 40
1
 40
1
 40
1
 10
68.709235
 20
155.385941
 30
0.0
 10
68.187418
 20
155.385941
 30
0.0
 10
67.663763
 20
155.435550
 30
0.0
 10
67.138271
 20
155.534768
 30
0.0
  0
SPLINE
  5
10e
100
AcDbEntity
  8
Layer_1
 62
7
100
AcDbSpline
 70
8
 71
3
 72
8
 73
4
 74
0
 40
0
 40
0
 40
0
 40
0
 40
1
 40
1
 40
1
 40
1
 10
67.138271
 20
155.534768
 30
0.0
 10
66.612778
 20
155.633986
 30
0.0
 10
66.087286
 20
155.780977
 30
0.0
 10
65.561794
 20
155.975740
 30
0.0
  0
LWPOLYLINE
  5
10f
100
AcDbEntity
  8
Layer_1
 62
7
100
AcDbPolyline
 90
2
 70
1
 10
68.549382
 20
160.694143
 30
0.0
 10
69.453376
 20
160.512242
 30
0.0
  0
SPLINE
  5
110
100
AcDbEntity
  8
Layer_1
 62
7
100
AcDbSpline
 70
8
 71
3
 72
8
 73
4
 74
0
 40
0
 40
0
 40
0
 40
0
 40
1
 40
1
 40
1
 40
1
 10
65.561794
 20
157.767191
 30
0.0
 10
66.087286
 20
157.487907
 30
0.0
 10
66.594405
 20
157.276608
 30
0.0
 10
67.083150
 20
157.133291
 30
0.0
  0
SPLINE
  5
111
100
AcDbEntity
  8
Layer_1
 62
7
100
AcDbSpline
 70
8
 71
3
 72
8
 73
4
 74
0
 40
0
 40
0
 40
0
 40
0
 40
1
 40
1
 40
1
 40
1
 10
67.083150
 20
157.133291
 30
0.0
 10
67.575569
 20
156.993650
 30
0.0
 10
68.049614
 20
156.923829
 30
0.0
 10
68.505284
 20
156.923829
 30
0.0
  0
SPLINE
  5
112
100
AcDbEntity
  8
Layer_1
 62
7
100
AcDbSpline
 70
8
 71
3
 72
8
 73
4
 74
0
 40
0
 40
0
 40
0
 40
0
 40
1
 40
1
 40
1
 40
1
 10
68.505284
 20
156.923829
 30
0.0
 10
68.968306
 20
156.923829
 30
0.0
 10
69.322921
 20
157.001000
 30
0.0
 10
69.569130
 20
157.155341
 30
0.0
  0
SPLINE
  5
113
100
AcDbEntity
  8
Layer_1
 62
7
100
AcDbSpline
 70
8
 71
3
 72
8
 73
4
 74
0
 40
0
 40
0
 40
0
 40
0
 40
1
 40
1
 40
1
 40
1
 10
69.569130
 20
157.155341
 30
0.0
 10
69.815340
 20
157.309681
 30
0.0
 10
69.938446
 20
157.530167
 30
0.0
 10
69.938446
 20
157.816800
 30
0.0
  0
SPLINE
  5
114
100
AcDbEntity
  8
Layer_1
 62
7
100
AcDbSpline
 70
8
 71
3
 72
8
 73
4
 74
0
 40
0
 40
0
 40
0
 40
0
 40
1
 40
1
 40
1
 40
1
 10
69.938446
 20
157.816800
 30
0.0
 10
69.938446
 20
158.074032
 30
0.0
 10
69.853926
 20
158.272469
 30
0.0
 10
69.684886
 20
158.412111
 30
0.0
  0
SPLINE
  5
115
100
AcDbEntity
  8
Layer_1
 62
7
100
AcDbSpline
 70
8
 71
3
 72
8
 73
4
 74
0
 40
0
 40
0
 40
0
 40
0
 40
1
 40
1
 40
1
 40
1
 10
69.684886
 20
158.412111
 30
0.0
 10
69.519521
 20
158.551752
 30
0.0
 10
69.186954
 20
158.676695
 30
0.0
 10
68.687185
 20
158.786939
 30
0.0
  0
LWPOLYLINE
  5
116
100
AcDbEntity
  8
Layer_1
 62
7
100
AcDbPolyline
 90
2
 70
1
 10
65.561794
 20
155.975740
 30
0.0
 10
65.561794
 20
157.767191
 30
0.0
  0
SPLINE
  5
117
100
AcDbEntity
  8
Layer_1
 62
7
100
AcDbSpline
 70
8
 71
3
 72
8
 73
4
 74
0
 40
0
 40
0
 40
0
 40
0
 40
1
 40
1
 40
1
 40
1
 10
67.865876
 20
158.968839
 30
0.0
 10
67.042728
 20
159.145228
 30
0.0
 10
66.440066
 20
159.426348
 30
0.0
 10
66.057890
 20
159.812198
 30
0.0
  0
SPLINE
  5
118
100
AcDbEntity
  8
Layer_1
 62
7
100
AcDbSpline
 70
8
 71
3
 72
8
 73
4
 74
0
 40
0
 40
0
 40
0
 40
0
 40
1
 40
1
 40
1
 40
1
 10
66.057890
 20
159.812198
 30
0.0
 10
65.679389
 20
160.198049
 30
0.0
 10
65.490138
 20
160.718028
 30
0.0
 10
65.490138
 20
161.372136
 30
0.0
  0
SPLINE
  5
119
100
AcDbEntity
  8
Layer_1
 62
7
100
AcDbSpline
 70
8
 71
3
 72
8
 73
4
 74
0
 40
0
 40
0
 40
0
 40
0
 40
1
 40
1
 40
1
 40
1
 10
65.490138
 20
161.372136
 30
0.0
 10
65.490138
 20
162.191610
 30
0.0
 10
65.754721
 20
162.821833
 30
0.0
 10
66.283888
 20
163.262805
 30
0.0
  0
SPLINE
  5
11a
100
AcDbEntity
  8
Layer_1
 62
7
100
AcDbSpline
 70
8
 71
3
 72
8
 73
4
 74
0
 40
0
 40
0
 40
0
 40
0
 40
1
 40
1
 40
1
 40
1
 10
66.283888
 20
163.262805
 30
0.0
 10
66.813055
 20
163.703777
 30
0.0
 10
67.573731
 20
163.924264
 30
0.0
 10
68.565917
 20
163.924264
 30
0.0
  0
SPLINE
  5
11b
100
AcDbEntity
  8
Layer_1
 62
7
100
AcDbSpline
 70
8
 71
3
 72
8
 73
4
 74
0
 40
0
 40
0
 40
0
 40
0
 40
1
 40
1
 40
1
 40
1
 10
68.565917
 20
163.924264
 30
0.0
 10
69.017915
 20
163.924264
 30
0.0
 10
69.482773
 20
163.889354
 30
0.0
 10
69.960493
 20
163.819534
 30
0.0
  0
SPLINE
  5
11c
100
AcDbEntity
  8
Layer_1
 62
7
100
AcDbSpline
 70
8
 71
3
 72
8
 73
4
 74
0
 40
0
 40
0
 40
0
 40
0
 40
1
 40
1
 40
1
 40
1
 10
69.960493
 20
163.819534
 30
0.0
 10
70.438212
 20
163.753388
 30
0.0
 10
70.932469
 20
163.652332
 30
0.0
 10
71.443263
 20
163.516365
 30
0.0
  0
LWPOLYLINE
  5
11d
100
AcDbEntity
  8
Layer_1
 62
7
100
AcDbPolyline
 90
2
 70
1
 10
68.687185
 20
158.786939
 30
0.0
 10
67.865876
 20
158.968839
 30
0.0
  0
SPLINE
  5
11e
100
AcDbEntity
  8
Layer_1
 62
7
100
AcDbSpline
 70
8
 71
3
 72
8
 73
4
 74
0
 40
0
 40
0
 40
0
 40
0
 40
1
 40
1
 40
1
 40
1
 10
76.701856
 20
160.457121
 30
0.0
 10
76.264558
 20
160.457121
 30
0.0
 10
75.930154
 20
160.299106
 30
0.0
 10
75.698644
 20
159.983075
 30
0.0
  0
SPLINE
  5
11f
100
AcDbEntity
  8
Layer_1
 62
7
100
AcDbSpline
 70
8
 71
3
 72
8
 73
4
 74
0
 40
0
 40
0
 40
0
 40
0
 40
1
 40
1
 40
1
 40
1
 10
75.698644
 20
159.983075
 30
0.0
 10
75.470807
 20
159.670719
 30
0.0
 10
75.356889
 20
159.218723
 30
0.0
 10
75.356889
 20
158.627085
 30
0.0
  0
SPLINE
  5
120
100
AcDbEntity
  8
Layer_1
 62
7
100
AcDbSpline
 70
8
 71
3
 72
8
 73
4
 74
0
 40
0
 40
0
 40
0
 40
0
 40
1
 40
1
 40
1
 40
1
 10
75.356889
 20
158.627085
 30
0.0
 10
75.356889
 20
158.035448
 30
0.0
 10
75.470807
 20
157.581614
 30
0.0
 10
75.698644
 20
157.265583
 30
0.0
  0
SPLINE
  5
121
100
AcDbEntity
  8
Layer_1
 62
7
100
AcDbSpline
 70
8
 71
3
 72
8
 73
4
 74
0
 40
0
 40
0
 40
0
 40
0
 40
1
 40
1
 40
1
 40
1
 10
75.698644
 20
157.265583
 30
0.0
 10
75.930154
 20
156.953229
 30
0.0
 10
76.264558
 20
156.797052
 30
0.0
 10
76.701856
 20
156.797052
 30
0.0
  0
SPLINE
  5
122
100
AcDbEntity
  8
Layer_1
 62
7
100
AcDbSpline
 70
8
 71
3
 72
8
 73
4
 74
0
 40
0
 40
0
 40
0
 40
0
 40
1
 40
1
 40
1
 40
1
 10
76.701856
 20
156.797052
 30
0.0
 10
77.131805
 20
156.797052
 30
0.0
 10
77.460696
 20
156.953229
 30
0.0
 10
77.688530
 20
157.265583
 30
0.0
  0
SPLINE
  5
123
100
AcDbEntity
  8
Layer_1
 62
7
100
AcDbSpline
 70
8
 71
3
 72
8
 73
4
 74
0
 40
0
 40
0
 40
0
 40
0
 40
1
 40
1
 40
1
 40
1
 10
77.688530
 20
157.265583
 30
0.0
 10
77.916366
 20
157.581614
 30
0.0
 10
78.030284
 20
158.035448
 30
0.0
 10
78.030284
 20
158.627085
 30
0.0
  0
SPLINE
  5
124
100
AcDbEntity
  8
Layer_1
 62
7
100
AcDbSpline
 70
8
 71
3
 72
8
 73
4
 74
0
 40
0
 40
0
 40
0
 40
0
 40
1
 40
1
 40
1
 40
1
 10
78.030284
 20
158.627085
 30
0.0
 10
78.030284
 20
159.218723
 30
0.0
 10
77.916366
 20
159.670719
 30
0.0
 10
77.688530
 20
159.983075
 30
0.0
  0
SPLINE
  5
125
100
AcDbEntity
  8
Layer_1
 62
7
100
AcDbSpline
 70
8
 71
3
 72
8
 73
4
 74
0
 40
0
 40
0
 40
0
 40
0
 40
1
 40
1
 40
1
 40
1
 10
77.688530
 20
159.983075
 30
0.0
 10
77.460696
 20
160.299106
 30
0.0
 10
77.131805
 20
160.457121
 30
0.0
 10
76.701856
 20
160.457121
 30
0.0
  0
LWPOLYLINE
  5
126
100
AcDbEntity
  8
Layer_1
 62
7
100
AcDbPolyline
 90
2
 70
1
 10
71.443263
 20
163.516365
 30
0.0
 10
71.443263
 20
163.516365
 30
0.0
  0
SPLINE
  5
127
100
AcDbEntity
  8
Layer_1
 62
7
100
AcDbSpline
 70
8
 71
3
 72
8
 73
4
 74
0
 40
0
 40
0
 40
0
 40
0
 40
1
 40
1
 40
1
 40
1
 10
76.701856
 20
161.868232
 30
0.0
 10
77.763864
 20
161.868232
 30
0.0
 10
78.592524
 20
161.581600
 30
0.0
 10
79.187836
 20
161.008335
 30
0.0
  0
SPLINE
  5
128
100
AcDbEntity
  8
Layer_1
 62
7
100
AcDbSpline
 70
8
 71
3
 72
8
 73
4
 74
0
 40
0
 40
0
 40
0
 40
0
 40
1
 40
1
 40
1
 40
1
 10
79.187836
 20
161.008335
 30
0.0
 10
79.786824
 20
160.435072
 30
0.0
 10
80.086319
 20
159.641322
 30
0.0
 10
80.086319
 20
158.627085
 30
0.0
  0
SPLINE
  5
129
100
AcDbEntity
  8
Layer_1
 62
7
100
AcDbSpline
 70
8
 71
3
 72
8
 73
4
 74
0
 40
0
 40
0
 40
0
 40
0
 40
1
 40
1
 40
1
 40
1
 10
80.086319
 20
158.627085
 30
0.0
 10
80.086319
 20
157.612850
 30
0.0
 10
79.786824
 20
156.819100
 30
0.0
 10
79.187836
 20
156.245835
 30
0.0
  0
SPLINE
  5
12a
100
AcDbEntity
  8
Layer_1
 62
7
100
AcDbSpline
 70
8
 71
3
 72
8
 73
4
 74
0
 40
0
 40
0
 40
0
 40
0
 40
1
 40
1
 40
1
 40
1
 10
79.187836
 20
156.245835
 30
0.0
 10
78.592524
 20
155.672572
 30
0.0
 10
77.763864
 20
155.385941
 30
0.0
 10
76.701856
 20
155.385941
 30
0.0
  0
SPLINE
  5
12b
100
AcDbEntity
  8
Layer_1
 62
7
100
AcDbSpline
 70
8
 71
3
 72
8
 73
4
 74
0
 40
0
 40
0
 40
0
 40
0
 40
1
 40
1
 40
1
 40
1
 10
76.701856
 20
155.385941
 30
0.0
 10
75.636174
 20
155.385941
 30
0.0
 10
74.802001
 20
155.672572
 30
0.0
 10
74.199338
 20
156.245835
 30
0.0
  0
SPLINE
  5
12c
100
AcDbEntity
  8
Layer_1
 62
7
100
AcDbSpline
 70
8
 71
3
 72
8
 73
4
 74
0
 40
0
 40
0
 40
0
 40
0
 40
1
 40
1
 40
1
 40
1
 10
74.199338
 20
156.245835
 30
0.0
 10
73.600351
 20
156.819100
 30
0.0
 10
73.300858
 20
157.612850
 30
0.0
 10
73.300858
 20
158.627085
 30
0.0
  0
SPLINE
  5
12d
100
AcDbEntity
  8
Layer_1
 62
7
100
AcDbSpline
 70
8
 71
3
 72
8
 73
4
 74
0
 40
0
 40
0
 40
0
 40
0
 40
1
 40
1
 40
1
 40
1
 10
73.300858
 20
158.627085
 30
0.0
 10
73.300858
 20
159.641322
 30
0.0
 10
73.600351
 20
160.435072
 30
0.0
 10
74.199338
 20
161.008335
 30
0.0
  0
SPLINE
  5
12e
100
AcDbEntity
  8
Layer_1
 62
7
100
AcDbSpline
 70
8
 71
3
 72
8
 73
4
 74
0
 40
0
 40
0
 40
0
 40
0
 40
1
 40
1
 40
1
 40
1
 10
74.199338
 20
161.008335
 30
0.0
 10
74.802001
 20
161.581600
 30
0.0
 10
75.636174
 20
161.868232
 30
0.0
 10
76.701856
 20
161.868232
 30
0.0
  0
LWPOLYLINE
  5
12f
100
AcDbEntity
  8
Layer_1
 62
7
100
AcDbPolyline
 90
2
 70
1
 10
76.701856
 20
160.457121
 30
0.0
 10
76.701856
 20
160.457121
 30
0.0
  0
SPLINE
  5
130
100
AcDbEntity
  8
Layer_1
 62
7
100
AcDbSpline
 70
8
 71
3
 72
8
 73
4
 74
0
 40
0
 40
0
 40
0
 40
0
 40
1
 40
1
 40
1
 40
1
 10
87.246604
 20
160.694143
 30
0.0
 10
87.496489
 20
161.076319
 30
0.0
 10
87.792308
 20
161.366626
 30
0.0
 10
88.134060
 20
161.565064
 30
0.0
  0
SPLINE
  5
131
100
AcDbEntity
  8
Layer_1
 62
7
100
AcDbSpline
 70
8
 71
3
 72
8
 73
4
 74
0
 40
0
 40
0
 40
0
 40
0
 40
1
 40
1
 40
1
 40
1
 10
88.134060
 20
161.565064
 30
0.0
 10
88.479489
 20
161.767176
 30
0.0
 10
88.857990
 20
161.868232
 30
0.0
 10
89.269564
 20
161.868232
 30
0.0
  0
SPLINE
  5
132
100
AcDbEntity
  8
Layer_1
 62
7
100
AcDbSpline
 70
8
 71
3
 72
8
 73
4
 74
0
 40
0
 40
0
 40
0
 40
0
 40
1
 40
1
 40
1
 40
1
 10
89.269564
 20
161.868232
 30
0.0
 10
89.978794
 20
161.868232
 30
0.0
 10
90.518986
 20
161.649583
 30
0.0
 10
90.890138
 20
161.212286
 30
0.0
  0
SPLINE
  5
133
100
AcDbEntity
  8
Layer_1
 62
7
100
AcDbSpline
 70
8
 71
3
 72
8
 73
4
 74
0
 40
0
 40
0
 40
0
 40
0
 40
1
 40
1
 40
1
 40
1
 10
90.890138
 20
161.212286
 30
0.0
 10
91.261288
 20
160.774988
 30
0.0
 10
91.446864
 20
160.139252
 30
0.0
 10
91.446864
 20
159.305079
 30
0.0
  0
LWPOLYLINE
  5
134
100
AcDbEntity
  8
Layer_1
 62
7
100
AcDbPolyline
 90
2
 70
1
 10
76.701856
 20
161.868232
 30
0.0
 10
76.701856
 20
161.868232
 30
0.0
  0
SPLINE
  5
135
100
AcDbEntity
  8
Layer_1
 62
7
100
AcDbSpline
 70
8
 71
3
 72
8
 73
4
 74
0
 40
0
 40
0
 40
0
 40
0
 40
1
 40
1
 40
1
 40
1
 10
89.462489
 20
158.764889
 30
0.0
 10
89.466158
 20
158.812661
 30
0.0
 10
89.467992
 20
158.862271
 30
0.0
 10
89.467992
 20
158.913718
 30
0.0
  0
SPLINE
  5
136
100
AcDbEntity
  8
Layer_1
 62
7
100
AcDbSpline
 70
8
 71
3
 72
8
 73
4
 74
0
 40
0
 40
0
 40
0
 40
0
 40
1
 40
1
 40
1
 40
1
 10
89.467992
 20
158.913718
 30
0.0
 10
89.471661
 20
158.965164
 30
0.0
 10
89.473495
 20
159.038659
 30
0.0
 10
89.473495
 20
159.134205
 30
0.0
  0
SPLINE
  5
137
100
AcDbEntity
  8
Layer_1
 62
7
100
AcDbSpline
 70
8
 71
3
 72
8
 73
4
 74
0
 40
0
 40
0
 40
0
 40
0
 40
1
 40
1
 40
1
 40
1
 10
89.473495
 20
159.134205
 30
0.0
 10
89.473495
 20
159.571500
 30
0.0
 10
89.409186
 20
159.887530
 30
0.0
 10
89.280568
 20
160.082293
 30
0.0
  0
SPLINE
  5
138
100
AcDbEntity
  8
Layer_1
 62
7
100
AcDbSpline
 70
8
 71
3
 72
8
 73
4
 74
0
 40
0
 40
0
 40
0
 40
0
 40
1
 40
1
 40
1
 40
1
 10
89.280568
 20
160.082293
 30
0.0
 10
89.151952
 20
160.280731
 30
0.0
 10
88.944328
 20
160.379950
 30
0.0
 10
88.657695
 20
160.379950
 30
0.0
  0
SPLINE
  5
139
100
AcDbEntity
  8
Layer_1
 62
7
100
AcDbSpline
 70
8
 71
3
 72
8
 73
4
 74
0
 40
0
 40
0
 40
0
 40
0
 40
1
 40
1
 40
1
 40
1
 10
88.657695
 20
160.379950
 30
0.0
 10
88.282868
 20
160.379950
 30
0.0
 10
87.992561
 20
160.225610
 30
0.0
 10
87.786774
 20
159.916928
 30
0.0
  0
SPLINE
  5
13a
100
AcDbEntity
  8
Layer_1
 62
7
100
AcDbSpline
 70
8
 71
3
 72
8
 73
4
 74
0
 40
0
 40
0
 40
0
 40
0
 40
1
 40
1
 40
1
 40
1
 10
87.786774
 20
159.916928
 30
0.0
 10
87.584662
 20
159.608249
 30
0.0
 10
87.479931
 20
159.161764
 30
0.0
 10
87.472582
 20
158.577476
 30
0.0
  0
LWPOLYLINE
  5
13b
100
AcDbEntity
  8
Layer_1
 62
7
100
AcDbPolyline
 90
4
 70
1
 10
91.446864
 20
159.305079
 30
0.0
 10
91.446864
 20
155.545791
 30
0.0
 10
89.462489
 20
155.545791
 30
0.0
 10
89.462489
 20
158.764889
 30
0.0
  0
SPLINE
  5
13c
100
AcDbEntity
  8
Layer_1
 62
7
100
AcDbSpline
 70
8
 71
3
 72
8
 73
4
 74
0
 40
0
 40
0
 40
0
 40
0
 40
1
 40
1
 40
1
 40
1
 10
85.488207
 20
158.764889
 30
0.0
 10
85.488207
 20
159.448395
 30
0.0
 10
85.429411
 20
159.887530
 30
0.0
 10
85.311818
 20
160.082293
 30
0.0
  0
SPLINE
  5
13d
100
AcDbEntity
  8
Layer_1
 62
7
100
AcDbSpline
 70
8
 71
3
 72
8
 73
4
 74
0
 40
0
 40
0
 40
0
 40
0
 40
1
 40
1
 40
1
 40
1
 10
85.311818
 20
160.082293
 30
0.0
 10
85.194226
 20
160.280731
 30
0.0
 10
84.984764
 20
160.379950
 30
0.0
 10
84.683433
 20
160.379950
 30
0.0
  0
SPLINE
  5
13e
100
AcDbEntity
  8
Layer_1
 62
7
100
AcDbSpline
 70
8
 71
3
 72
8
 73
4
 74
0
 40
0
 40
0
 40
0
 40
0
 40
1
 40
1
 40
1
 40
1
 10
84.683433
 20
160.379950
 30
0.0
 10
84.304932
 20
160.379950
 30
0.0
 10
84.012788
 20
160.223772
 30
0.0
 10
83.807001
 20
159.911416
 30
0.0
  0
SPLINE
  5
13f
100
AcDbEntity
  8
Layer_1
 62
7
100
AcDbSpline
 70
8
 71
3
 72
8
 73
4
 74
0
 40
0
 40
0
 40
0
 40
0
 40
1
 40
1
 40
1
 40
1
 10
83.807001
 20
159.911416
 30
0.0
 10
83.601214
 20
159.602737
 30
0.0
 10
83.498320
 20
159.159927
 30
0.0
 10
83.498320
 20
158.582988
 30
0.0
  0
LWPOLYLINE
  5
140
100
AcDbEntity
  8
Layer_1
 62
7
100
AcDbPolyline
 90
4
 70
1
 10
87.472582
 20
158.577476
 30
0.0
 10
87.472582
 20
155.545791
 30
0.0
 10
85.488207
 20
155.545791
 30
0.0
 10
85.488207
 20
158.764889
 30
0.0
  0
SPLINE
  5
141
100
AcDbEntity
  8
Layer_1
 62
7
100
AcDbSpline
 70
8
 71
3
 72
8
 73
4
 74
0
 40
0
 40
0
 40
0
 40
0
 40
1
 40
1
 40
1
 40
1
 10
83.498320
 20
160.815411
 30
0.0
 10
83.740855
 20
161.164514
 30
0.0
 10
84.018300
 20
161.427260
 30
0.0
 10
84.330656
 20
161.603649
 30
0.0
  0
SPLINE
  5
142
100
AcDbEntity
  8
Layer_1
 62
7
100
AcDbSpline
 70
8
 71
3
 72
8
 73
4
 74
0
 40
0
 40
0
 40
0
 40
0
 40
1
 40
1
 40
1
 40
1
 10
84.330656
 20
161.603649
 30
0.0
 10
84.646686
 20
161.780038
 30
0.0
 10
84.993952
 20
161.868232
 30
0.0
 10
85.372454
 20
161.868232
 30
0.0
  0
SPLINE
  5
143
100
AcDbEntity
  8
Layer_1
 62
7
100
AcDbSpline
 70
8
 71
3
 72
8
 73
4
 74
0
 40
0
 40
0
 40
0
 40
0
 40
1
 40
1
 40
1
 40
1
 10
85.372454
 20
161.868232
 30
0.0
 10
85.798726
 20
161.868232
 30
0.0
 10
86.175389
 20
161.765339
 30
0.0
 10
86.502443
 20
161.559552
 30
0.0
  0
SPLINE
  5
144
100
AcDbEntity
  8
Layer_1
 62
7
100
AcDbSpline
 70
8
 71
3
 72
8
 73
4
 74
0
 40
0
 40
0
 40
0
 40
0
 40
1
 40
1
 40
1
 40
1
 10
86.502443
 20
161.559552
 30
0.0
 10
86.829497
 20
161.353765
 30
0.0
 10
87.077544
 20
161.065295
 30
0.0
 10
87.246584
 20
160.694143
 30
0.0
  0
LWPOLYLINE
  5
145
100
AcDbEntity
  8
Layer_1
 62
7
100
AcDbPolyline
 90
6
 70
1
 10
83.498320
 20
158.582988
 30
0.0
 10
83.498320
 20
155.545791
 30
0.0
 10
81.513945
 20
155.545791
 30
0.0
 10
81.513945
 20
161.719402
 30
0.0
 10
83.498320
 20
161.719402
 30
0.0
 10
83.498320
 20
160.815411
 30
0.0
  0
LWPOLYLINE
  5
146
100
AcDbEntity
  8
Layer_1
 62
7
100
AcDbPolyline
 90
2
 70
1
 10
87.246584
 20
160.694143
 30
0.0
 10
87.246604
 20
160.694143
 30
0.0
  0
SPLINE
  5
147
100
AcDbEntity
  8
Layer_1
 62
7
100
AcDbSpline
 70
8
 71
3
 72
8
 73
4
 74
0
 40
0
 40
0
 40
0
 40
0
 40
1
 40
1
 40
1
 40
1
 10
94.847862
 20
158.086895
 30
0.0
 10
94.895634
 20
157.623874
 30
0.0
 10
95.062837
 20
157.276608
 30
0.0
 10
95.349469
 20
157.045097
 30
0.0
  0
SPLINE
  5
148
100
AcDbEntity
  8
Layer_1
 62
7
100
AcDbSpline
 70
8
 71
3
 72
8
 73
4
 74
0
 40
0
 40
0
 40
0
 40
0
 40
1
 40
1
 40
1
 40
1
 10
95.349469
 20
157.045097
 30
0.0
 10
95.636102
 20
156.813586
 30
0.0
 10
96.036651
 20
156.697831
 30
0.0
 10
96.551118
 20
156.697831
 30
0.0
  0
SPLINE
  5
149
100
AcDbEntity
  8
Layer_1
 62
7
100
AcDbSpline
 70
8
 71
3
 72
8
 73
4
 74
0
 40
0
 40
0
 40
0
 40
0
 40
1
 40
1
 40
1
 40
1
 10
96.551118
 20
156.697831
 30
0.0
 10
96.966366
 20
156.697831
 30
0.0
 10
97.390802
 20
156.758464
 30
0.0
 10
97.824425
 20
156.879732
 30
0.0
  0
SPLINE
  5
14a
100
AcDbEntity
  8
Layer_1
 62
7
100
AcDbSpline
 70
8
 71
3
 72
8
 73
4
 74
0
 40
0
 40
0
 40
0
 40
0
 40
1
 40
1
 40
1
 40
1
 10
97.824425
 20
156.879732
 30
0.0
 10
98.261723
 20
157.004675
 30
0.0
 10
98.710044
 20
157.192089
 30
0.0
 10
99.169389
 20
157.441972
 30
0.0
  0
LWPOLYLINE
  5
14b
100
AcDbEntity
  8
Layer_1
 62
7
100
AcDbPolyline
 90
3
 70
1
 10
99.461534
 20
158.649135
 30
0.0
 10
99.461534
 20
158.086895
 30
0.0
 10
94.847862
 20
158.086895
 30
0.0
  0
SPLINE
  5
14c
100
AcDbEntity
  8
Layer_1
 62
7
100
AcDbSpline
 70
8
 71
3
 72
8
 73
4
 74
0
 40
0
 40
0
 40
0
 40
0
 40
1
 40
1
 40
1
 40
1
 10
99.169389
 20
155.920619
 30
0.0
 10
98.702695
 20
155.744230
 30
0.0
 10
98.236000
 20
155.611939
 30
0.0
 10
97.769305
 20
155.523744
 30
0.0
  0
SPLINE
  5
14d
100
AcDbEntity
  8
Layer_1
 62
7
100
AcDbSpline
 70
8
 71
3
 72
8
 73
4
 74
0
 40
0
 40
0
 40
0
 40
0
 40
1
 40
1
 40
1
 40
1
 10
97.769305
 20
155.523744
 30
0.0
 10
97.302609
 20
155.431875
 30
0.0
 10
96.835913
 20
155.385941
 30
0.0
 10
96.369217
 20
155.385941
 30
0.0
  0
SPLINE
  5
14e
100
AcDbEntity
  8
Layer_1
 62
7
100
AcDbSpline
 70
8
 71
3
 72
8
 73
4
 74
0
 40
0
 40
0
 40
0
 40
0
 40
1
 40
1
 40
1
 40
1
 10
96.369217
 20
155.385941
 30
0.0
 10
95.252088
 20
155.385941
 30
0.0
 10
94.383005
 20
155.668898
 30
0.0
 10
93.761969
 20
156.234811
 30
0.0
  0
SPLINE
  5
14f
100
AcDbEntity
  8
Layer_1
 62
7
100
AcDbSpline
 70
8
 71
3
 72
8
 73
4
 74
0
 40
0
 40
0
 40
0
 40
0
 40
1
 40
1
 40
1
 40
1
 10
93.761969
 20
156.234811
 30
0.0
 10
93.144608
 20
156.804400
 30
0.0
 10
92.835928
 20
157.601824
 30
0.0
 10
92.835928
 20
158.627085
 30
0.0
  0
SPLINE
  5
150
100
AcDbEntity
  8
Layer_1
 62
7
100
AcDbSpline
 70
8
 71
3
 72
8
 73
4
 74
0
 40
0
 40
0
 40
0
 40
0
 40
1
 40
1
 40
1
 40
1
 10
92.835928
 20
158.627085
 30
0.0
 10
92.835928
 20
159.633971
 30
0.0
 10
93.139095
 20
160.425884
 30
0.0
 10
93.745431
 20
161.002823
 30
0.0
  0
SPLINE
  5
151
100
AcDbEntity
  8
Layer_1
 62
7
100
AcDbSpline
 70
8
 71
3
 72
8
 73
4
 74
0
 40
0
 40
0
 40
0
 40
0
 40
1
 40
1
 40
1
 40
1
 10
93.745431
 20
161.002823
 30
0.0
 10
94.355443
 20
161.579763
 30
0.0
 10
95.193290
 20
161.868232
 30
0.0
 10
96.258973
 20
161.868232
 30
0.0
  0
SPLINE
  5
152
100
AcDbEntity
  8
Layer_1
 62
7
100
AcDbSpline
 70
8
 71
3
 72
8
 73
4
 74
0
 40
0
 40
0
 40
0
 40
0
 40
1
 40
1
 40
1
 40
1
 10
96.258973
 20
161.868232
 30
0.0
 10
97.229112
 20
161.868232
 30
0.0
 10
98.004488
 20
161.576088
 30
0.0
 10
98.585102
 20
160.991800
 30
0.0
  0
SPLINE
  5
153
100
AcDbEntity
  8
Layer_1
 62
7
100
AcDbSpline
 70
8
 71
3
 72
8
 73
4
 74
0
 40
0
 40
0
 40
0
 40
0
 40
1
 40
1
 40
1
 40
1
 10
98.585102
 20
160.991800
 30
0.0
 10
99.169390
 20
160.407511
 30
0.0
 10
99.461534
 20
159.626623
 30
0.0
 10
99.461534
 20
158.649135
 30
0.0
  0
LWPOLYLINE
  5
154
100
AcDbEntity
  8
Layer_1
 62
7
100
AcDbPolyline
 90
2
 70
1
 10
99.169389
 20
157.441972
 30
0.0
 10
99.169389
 20
155.920619
 30
0.0
  0
SPLINE
  5
155
100
AcDbEntity
  8
Layer_1
 62
7
100
AcDbSpline
 70
8
 71
3
 72
8
 73
4
 74
0
 40
0
 40
0
 40
0
 40
0
 40
1
 40
1
 40
1
 40
1
 10
97.433062
 20
159.305079
 30
0.0
 10
97.433062
 20
159.679906
 30
0.0
 10
97.322820
 20
159.981237
 30
0.0
 10
97.102335
 20
160.209073
 30
0.0
  0
SPLINE
  5
156
100
AcDbEntity
  8
Layer_1
 62
7
100
AcDbSpline
 70
8
 71
3
 72
8
 73
4
 74
0
 40
0
 40
0
 40
0
 40
0
 40
1
 40
1
 40
1
 40
1
 10
97.102335
 20
160.209073
 30
0.0
 10
96.885522
 20
160.440584
 30
0.0
 10
96.600727
 20
160.556339
 30
0.0
 10
96.247949
 20
160.556339
 30
0.0
  0
SPLINE
  5
157
100
AcDbEntity
  8
Layer_1
 62
7
100
AcDbSpline
 70
8
 71
3
 72
8
 73
4
 74
0
 40
0
 40
0
 40
0
 40
0
 40
1
 40
1
 40
1
 40
1
 10
96.247949
 20
160.556339
 30
0.0
 10
95.865773
 20
160.556339
 30
0.0
 10
95.555255
 20
160.447933
 30
0.0
 10
95.316396
 20
160.231120
 30
0.0
  0
SPLINE
  5
158
100
AcDbEntity
  8
Layer_1
 62
7
100
AcDbSpline
 70
8
 71
3
 72
8
 73
4
 74
0
 40
0
 40
0
 40
0
 40
0
 40
1
 40
1
 40
1
 40
1
 10
95.316396
 20
160.231120
 30
0.0
 10
95.077536
 20
160.017984
 30
0.0
 10
94.928708
 20
159.709304
 30
0.0
 10
94.869912
 20
159.305079
 30
0.0
  0
LWPOLYLINE
  5
159
100
AcDbEntity
  8
Layer_1
 62
7
100
AcDbPolyline
 90
2
 70
1
 10
99.461534
 20
158.649135
 30
0.0
 10
99.461534
 20
158.649135
 30
0.0
  0
LWPOLYLINE
  5
15a
100
AcDbEntity
  8
Layer_1
 62
7
100
AcDbPolyline
 90
3
 70
1
 10
94.869912
 20
159.305079
 30
0.0
 10
97.433062
 20
159.305079
 30
0.0
 10
97.433062
 20
159.305079
 30
0.0
  0
LWPOLYLINE
  5
15b
100
AcDbEntity
  8
Layer_1
 62
7
100
AcDbPolyline
 90
10
 70
1
 10
103.981501
 20
163.775436
 30
0.0
 10
111.566223
 20
163.775436
 30
0.0
 10
111.566223
 20
162.171398
 30
0.0
 10
108.837707
 20
162.171398
 30
0.0
 10
108.837707
 20
155.545791
 30
0.0
 10
106.715529
 20
155.545791
 30
0.0
 10
106.715529
 20
162.171398
 30
0.0
 10
103.981501
 20
162.171398
 30
0.0
 10
103.981501
 20
163.775436
 30
0.0
 10
103.981501
 20
163.775436
 30
0.0
  0
SPLINE
  5
15c
100
AcDbEntity
  8
Layer_1
 62
7
100
AcDbSpline
 70
8
 71
3
 72
8
 73
4
 74
0
 40
0
 40
0
 40
0
 40
0
 40
1
 40
1
 40
1
 40
1
 10
112.619042
 20
158.086895
 30
0.0
 10
112.666815
 20
157.623874
 30
0.0
 10
112.834017
 20
157.276608
 30
0.0
 10
113.120650
 20
157.045097
 30
0.0
  0
SPLINE
  5
15d
100
AcDbEntity
  8
Layer_1
 62
7
100
AcDbSpline
 70
8
 71
3
 72
8
 73
4
 74
0
 40
0
 40
0
 40
0
 40
0
 40
1
 40
1
 40
1
 40
1
 10
113.120650
 20
157.045097
 30
0.0
 10
113.407282
 20
156.813586
 30
0.0
 10
113.807832
 20
156.697831
 30
0.0
 10
114.322298
 20
156.697831
 30
0.0
  0
SPLINE
  5
15e
100
AcDbEntity
  8
Layer_1
 62
7
100
AcDbSpline
 70
8
 71
3
 72
8
 73
4
 74
0
 40
0
 40
0
 40
0
 40
0
 40
1
 40
1
 40
1
 40
1
 10
114.322298
 20
156.697831
 30
0.0
 10
114.737547
 20
156.697831
 30
0.0
 10
115.161983
 20
156.758464
 30
0.0
 10
115.595606
 20
156.879732
 30
0.0
  0
SPLINE
  5
15f
100
AcDbEntity
  8
Layer_1
 62
7
100
AcDbSpline
 70
8
 71
3
 72
8
 73
4
 74
0
 40
0
 40
0
 40
0
 40
0
 40
1
 40
1
 40
1
 40
1
 10
115.595606
 20
156.879732
 30
0.0
 10
116.032904
 20
157.004675
 30
0.0
 10
116.481225
 20
157.192089
 30
0.0
 10
116.940570
 20
157.441972
 30
0.0
  0
LWPOLYLINE
  5
160
100
AcDbEntity
  8
Layer_1
 62
7
100
AcDbPolyline
 90
3
 70
1
 10
117.232715
 20
158.649135
 30
0.0
 10
117.232715
 20
158.086895
 30
0.0
 10
112.619042
 20
158.086895
 30
0.0
  0
SPLINE
  5
161
100
AcDbEntity
  8
Layer_1
 62
7
100
AcDbSpline
 70
8
 71
3
 72
8
 73
4
 74
0
 40
0
 40
0
 40
0
 40
0
 40
1
 40
1
 40
1
 40
1
 10
116.940570
 20
155.920619
 30
0.0
 10
116.473876
 20
155.744230
 30
0.0
 10
116.007181
 20
155.611939
 30
0.0
 10
115.540485
 20
155.523744
 30
0.0
  0
SPLINE
  5
162
100
AcDbEntity
  8
Layer_1
 62
7
100
AcDbSpline
 70
8
 71
3
 72
8
 73
4
 74
0
 40
0
 40
0
 40
0
 40
0
 40
1
 40
1
 40
1
 40
1
 10
115.540485
 20
155.523744
 30
0.0
 10
115.073789
 20
155.431875
 30
0.0
 10
114.607094
 20
155.385941
 30
0.0
 10
114.140398
 20
155.385941
 30
0.0
  0
SPLINE
  5
163
100
AcDbEntity
  8
Layer_1
 62
7
100
AcDbSpline
 70
8
 71
3
 72
8
 73
4
 74
0
 40
0
 40
0
 40
0
 40
0
 40
1
 40
1
 40
1
 40
1
 10
114.140398
 20
155.385941
 30
0.0
 10
113.023268
 20
155.385941
 30
0.0
 10
112.154185
 20
155.668898
 30
0.0
 10
111.533150
 20
156.234811
 30
0.0
  0
SPLINE
  5
164
100
AcDbEntity
  8
Layer_1
 62
7
100
AcDbSpline
 70
8
 71
3
 72
8
 73
4
 74
0
 40
0
 40
0
 40
0
 40
0
 40
1
 40
1
 40
1
 40
1
 10
111.533150
 20
156.234811
 30
0.0
 10
110.915789
 20
156.804400
 30
0.0
 10
110.607108
 20
157.601824
 30
0.0
 10
110.607108
 20
158.627085
 30
0.0
  0
SPLINE
  5
165
100
AcDbEntity
  8
Layer_1
 62
7
100
AcDbSpline
 70
8
 71
3
 72
8
 73
4
 74
0
 40
0
 40
0
 40
0
 40
0
 40
1
 40
1
 40
1
 40
1
 10
110.607108
 20
158.627085
 30
0.0
 10
110.607108
 20
159.633971
 30
0.0
 10
110.910276
 20
160.425884
 30
0.0
 10
111.516612
 20
161.002823
 30
0.0
  0
SPLINE
  5
166
100
AcDbEntity
  8
Layer_1
 62
7
100
AcDbSpline
 70
8
 71
3
 72
8
 73
4
 74
0
 40
0
 40
0
 40
0
 40
0
 40
1
 40
1
 40
1
 40
1
 10
111.516612
 20
161.002823
 30
0.0
 10
112.126624
 20
161.579763
 30
0.0
 10
112.964471
 20
161.868232
 30
0.0
 10
114.030153
 20
161.868232
 30
0.0
  0
SPLINE
  5
167
100
AcDbEntity
  8
Layer_1
 62
7
100
AcDbSpline
 70
8
 71
3
 72
8
 73
4
 74
0
 40
0
 40
0
 40
0
 40
0
 40
1
 40
1
 40
1
 40
1
 10
114.030153
 20
161.868232
 30
0.0
 10
115.000292
 20
161.868232
 30
0.0
 10
115.775669
 20
161.576088
 30
0.0
 10
116.356282
 20
160.991800
 30
0.0
  0
SPLINE
  5
168
100
AcDbEntity
  8
Layer_1
 62
7
100
AcDbSpline
 70
8
 71
3
 72
8
 73
4
 74
0
 40
0
 40
0
 40
0
 40
0
 40
1
 40
1
 40
1
 40
1
 10
116.356282
 20
160.991800
 30
0.0
 10
116.940571
 20
160.407511
 30
0.0
 10
117.232715
 20
159.626623
 30
0.0
 10
117.232715
 20
158.649135
 30
0.0
  0
LWPOLYLINE
  5
169
100
AcDbEntity
  8
Layer_1
 62
7
100
AcDbPolyline
 90
2
 70
1
 10
116.940570
 20
157.441972
 30
0.0
 10
116.940570
 20
155.920619
 30
0.0
  0
SPLINE
  5
16a
100
AcDbEntity
  8
Layer_1
 62
7
100
AcDbSpline
 70
8
 71
3
 72
8
 73
4
 74
0
 40
0
 40
0
 40
0
 40
0
 40
1
 40
1
 40
1
 40
1
 10
115.204243
 20
159.305079
 30
0.0
 10
115.204243
 20
159.679906
 30
0.0
 10
115.094000
 20
159.981237
 30
0.0
 10
114.873515
 20
160.209073
 30
0.0
  0
SPLINE
  5
16b
100
AcDbEntity
  8
Layer_1
 62
7
100
AcDbSpline
 70
8
 71
3
 72
8
 73
4
 74
0
 40
0
 40
0
 40
0
 40
0
 40
1
 40
1
 40
1
 40
1
 10
114.873515
 20
160.209073
 30
0.0
 10
114.656703
 20
160.440584
 30
0.0
 10
114.371907
 20
160.556339
 30
0.0
 10
114.019130
 20
160.556339
 30
0.0
  0
SPLINE
  5
16c
100
AcDbEntity
  8
Layer_1
 62
7
100
AcDbSpline
 70
8
 71
3
 72
8
 73
4
 74
0
 40
0
 40
0
 40
0
 40
0
 40
1
 40
1
 40
1
 40
1
 10
114.019130
 20
160.556339
 30
0.0
 10
113.636954
 20
160.556339
 30
0.0
 10
113.326436
 20
160.447933
 30
0.0
 10
113.087576
 20
160.231120
 30
0.0
  0
SPLINE
  5
16d
100
AcDbEntity
  8
Layer_1
 62
7
100
AcDbSpline
 70
8
 71
3
 72
8
 73
4
 74
0
 40
0
 40
0
 40
0
 40
0
 40
1
 40
1
 40
1
 40
1
 10
113.087576
 20
160.231120
 30
0.0
 10
112.848716
 20
160.017984
 30
0.0
 10
112.699888
 20
159.709304
 30
0.0
 10
112.641092
 20
159.305079
 30
0.0
  0
LWPOLYLINE
  5
16e
100
AcDbEntity
  8
Layer_1
 62
7
100
AcDbPolyline
 90
2
 70
1
 10
117.232715
 20
158.649135
 30
0.0
 10
117.232715
 20
158.649135
 30
0.0
  0
LWPOLYLINE
  5
16f
100
AcDbEntity
  8
Layer_1
 62
7
100
AcDbPolyline
 90
3
 70
1
 10
112.641092
 20
159.305079
 30
0.0
 10
115.204243
 20
159.305079
 30
0.0
 10
115.204243
 20
159.305079
 30
0.0
  0
LWPOLYLINE
  5
170
100
AcDbEntity
  8
Layer_1
 62
7
100
AcDbPolyline
 90
14
 70
1
 10
120.280935
 20
158.704256
 30
0.0
 10
118.054027
 20
161.719402
 30
0.0
 10
120.143132
 20
161.719402
 30
0.0
 10
121.405416
 20
159.889369
 30
0.0
 10
122.684235
 20
161.719402
 30
0.0
 10
124.773340
 20
161.719402
 30
0.0
 10
122.546432
 20
158.715280
 30
0.0
 10
124.883585
 20
155.545791
 30
0.0
 10
122.794477
 20
155.545791
 30
0.0
 10
121.405416
 20
157.497093
 30
0.0
 10
120.032890
 20
155.545791
 30
0.0
 10
117.943782
 20
155.545791
 30
0.0
 10
120.280935
 20
158.704256
 30
0.0
 10
120.280935
 20
158.704256
 30
0.0
  0
SPLINE
  5
171
100
AcDbEntity
  8
Layer_1
 62
7
100
AcDbSpline
 70
8
 71
3
 72
8
 73
4
 74
0
 40
0
 40
0
 40
0
 40
0
 40
1
 40
1
 40
1
 40
1
 10
128.152291
 20
157.690020
 30
0.0
 10
128.152291
 20
157.403387
 30
0.0
 10
128.209250
 20
157.208625
 30
0.0
 10
128.323168
 20
157.105732
 30
0.0
  0
SPLINE
  5
172
100
AcDbEntity
  8
Layer_1
 62
7
100
AcDbSpline
 70
8
 71
3
 72
8
 73
4
 74
0
 40
0
 40
0
 40
0
 40
0
 40
1
 40
1
 40
1
 40
1
 10
128.323168
 20
157.105732
 30
0.0
 10
128.437084
 20
157.006512
 30
0.0
 10
128.663082
 20
156.956902
 30
0.0
 10
129.001162
 20
156.956902
 30
0.0
  0
LWPOLYLINE
  5
173
100
AcDbEntity
  8
Layer_1
 62
7
100
AcDbPolyline
 90
6
 70
1
 10
128.152291
 20
163.472268
 30
0.0
 10
128.152291
 20
161.719402
 30
0.0
 10
130.186275
 20
161.719402
 30
0.0
 10
130.186275
 20
160.308291
 30
0.0
 10
128.152291
 20
160.308291
 30
0.0
 10
128.152291
 20
157.690020
 30
0.0
  0
SPLINE
  5
174
100
AcDbEntity
  8
Layer_1
 62
7
100
AcDbSpline
 70
8
 71
3
 72
8
 73
4
 74
0
 40
0
 40
0
 40
0
 40
0
 40
1
 40
1
 40
1
 40
1
 10
128.323168
 20
155.545791
 30
0.0
 10
127.544116
 20
155.545791
 30
0.0
 10
126.991063
 20
155.707481
 30
0.0
 10
126.664009
 20
156.030861
 30
0.0
  0
SPLINE
  5
175
100
AcDbEntity
  8
Layer_1
 62
7
100
AcDbSpline
 70
8
 71
3
 72
8
 73
4
 74
0
 40
0
 40
0
 40
0
 40
0
 40
1
 40
1
 40
1
 40
1
 10
126.664009
 20
156.030861
 30
0.0
 10
126.340629
 20
156.357915
 30
0.0
 10
126.178939
 20
156.910968
 30
0.0
 10
126.178939
 20
157.690020
 30
0.0
  0
LWPOLYLINE
  5
176
100
AcDbEntity
  8
Layer_1
 62
7
100
AcDbPolyline
 90
4
 70
1
 10
129.001162
 20
156.956902
 30
0.0
 10
130.015398
 20
156.956902
 30
0.0
 10
130.015398
 20
155.545791
 30
0.0
 10
128.323168
 20
155.545791
 30
0.0
  0
LWPOLYLINE
  5
177
100
AcDbEntity
  8
Layer_1
 62
7
100
AcDbPolyline
 90
8
 70
1
 10
126.178939
 20
157.690020
 30
0.0
 10
126.178939
 20
160.308291
 30
0.0
 10
125.197777
 20
160.308291
 30
0.0
 10
125.197777
 20
161.719402
 30
0.0
 10
126.178939
 20
161.719402
 30
0.0
 10
126.178939
 20
163.472268
 30
0.0
 10
128.152291
 20
163.472268
 30
0.0
 10
128.152291
 20
163.472268
 30
0.0
  0
ENDSEC
  0
SECTION
  2
OBJECTS
  0
DICTIONARY
  5
C
330
0
100
AcDbDictionary
  3
ACAD_GROUP
350
D
  3
ACAD_MLINESTYLE
350
17
  0
DICTIONARY
  5
D
330
C
100
AcDbDictionary
  0
DICTIONARY
  5
1A
330
C
100
AcDbDictionary
  0
DICTIONARY
  5
17
330
C
100
AcDbDictionary
  3
STANDARD
350
18
  0
DICTIONARY
  5
19
330
C
100
AcDbDictionary
  0
ENDSEC
  0
EOF
