%TF.GenerationSoftware,KiCad,Pcbnew,4.0.1-2.fc23-product*%
%TF.CreationDate,2016-03-22T23:12:51+01:00*%
%TF.ProjectId,router_board_v1,726F757465725F626F6172645F76312E,rev?*%
%TF.FileFunction,Copper,L1,Top,Signal*%
%FSLAX46Y46*%
G04 Gerber Fmt 4.6, Leading zero omitted, Abs format (unit mm)*
G04 Created by KiCad (PCBNEW 4.0.1-2.fc23-product) date Tue 22 Mar 2016 11:12:51 PM CET*
%MOMM*%
G01*
G04 APERTURE LIST*
%ADD10C,0.100000*%
%ADD11R,2.032000X1.727200*%
%ADD12O,2.032000X1.727200*%
%ADD13R,0.508000X1.143000*%
%ADD14R,2.500000X2.500000*%
%ADD15R,2.000000X2.500000*%
%ADD16R,2.000000X1.200000*%
%ADD17C,1.200000*%
%ADD18C,1.000000*%
%ADD19C,0.500000*%
G04 APERTURE END LIST*
D10*
D11*
X16510000Y27305000D03*
D12*
X16510000Y24765000D03*
X16510000Y22225000D03*
X16510000Y19685000D03*
X16510000Y17145000D03*
D13*
X15875000Y6985000D03*
X13335000Y6985000D03*
X12065000Y6985000D03*
X10795000Y6985000D03*
X9525000Y6985000D03*
X8255000Y6985000D03*
X6985000Y6985000D03*
X6985000Y13335000D03*
X8255000Y13335000D03*
X9525000Y13335000D03*
X10795000Y13335000D03*
X12065000Y13335000D03*
X13335000Y13335000D03*
X14605000Y13335000D03*
X15875000Y13335000D03*
X14605000Y6985000D03*
D14*
X1905000Y31115000D03*
D15*
X6350000Y31115000D03*
X9525000Y31115000D03*
X12700000Y31115000D03*
D14*
X17145000Y31115000D03*
X17145000Y1905000D03*
D15*
X12700000Y1905000D03*
X9525000Y1905000D03*
X6350000Y1905000D03*
D14*
X1905000Y1905000D03*
D11*
X2540000Y19685000D03*
D12*
X2540000Y22225000D03*
X2540000Y24765000D03*
X2540000Y27305000D03*
D16*
X1270000Y5875000D03*
X1270000Y7875000D03*
X1270000Y9875000D03*
X1270000Y11875000D03*
X1270000Y13875000D03*
X1270000Y15875000D03*
D17*
X5080000Y13335000D03*
X1905000Y3810000D03*
X1905000Y29210000D03*
X17145000Y3810000D03*
X17145000Y29210000D03*
X12700000Y16510000D03*
X13335000Y10160000D03*
X9525000Y3810000D03*
X15875000Y11430000D03*
D18*
X5080000Y13335000D02*
X6985000Y13335000D01*
X1905000Y3810000D02*
X1905000Y5240000D01*
X1905000Y5240000D02*
X1270000Y5875000D01*
D19*
X1270000Y5875000D02*
X1270000Y5715000D01*
D18*
X8255000Y13335000D02*
X9525000Y13335000D01*
X6985000Y13335000D02*
X8255000Y13335000D01*
X1905000Y29210000D02*
X1905000Y31115000D01*
X1905000Y3810000D02*
X1905000Y1905000D01*
D19*
X15875000Y6985000D02*
X17145000Y5715000D01*
X17145000Y5715000D02*
X17145000Y3810000D01*
D18*
X17145000Y3810000D02*
X17145000Y1905000D01*
X17145000Y29210000D02*
X17145000Y31115000D01*
X4445000Y15875000D02*
X1270000Y15875000D01*
X6350000Y17780000D02*
X4445000Y15875000D01*
X6350000Y31115000D02*
X6350000Y17780000D01*
X9525000Y31115000D02*
X9525000Y17145000D01*
X9525000Y17145000D02*
X12065000Y14605000D01*
X12065000Y14605000D02*
X12065000Y13335000D01*
X12700000Y16510000D02*
X12700000Y31115000D01*
D19*
X13335000Y6985000D02*
X13335000Y10160000D01*
X12700000Y1905000D02*
X12700000Y3810000D01*
X12700000Y3810000D02*
X11430000Y5080000D01*
X11430000Y5080000D02*
X10160000Y5080000D01*
X10160000Y5080000D02*
X9525000Y5715000D01*
X9525000Y5715000D02*
X9525000Y6985000D01*
D18*
X9525000Y3810000D02*
X9525000Y1905000D01*
D19*
X15875000Y13335000D02*
X15875000Y11430000D01*
X6350000Y1905000D02*
X6350000Y3655000D01*
X2130000Y7875000D02*
X1270000Y7875000D01*
X6350000Y3655000D02*
X2130000Y7875000D01*
X12065000Y6985000D02*
X12065000Y8056500D01*
X12065000Y8056500D02*
X11866500Y8255000D01*
X11866500Y8255000D02*
X6350000Y8255000D01*
X6350000Y8295000D02*
X2770000Y11875000D01*
X6350000Y8255000D02*
X6350000Y8295000D01*
X2770000Y11875000D02*
X1270000Y11875000D01*
X1270000Y13875000D02*
X2770000Y13875000D01*
X4580000Y12065000D02*
X13136500Y12065000D01*
X2770000Y13875000D02*
X4580000Y12065000D01*
X13136500Y12065000D02*
X13335000Y12263500D01*
X13335000Y12263500D02*
X13335000Y13335000D01*
X6985000Y6985000D02*
X8255000Y6985000D01*
X5660000Y6985000D02*
X6985000Y6985000D01*
X1270000Y9875000D02*
X2770000Y9875000D01*
X2770000Y9875000D02*
X5660000Y6985000D01*
M02*
