%TF.GenerationSoftware,KiCad,Pcbnew,4.0.1-2.fc23-product*%
%TF.CreationDate,2016-03-22T23:12:51+01:00*%
%TF.ProjectId,router_board_v1,726F757465725F626F6172645F76312E,rev?*%
%TF.FileFunction,Legend,Top*%
%FSLAX46Y46*%
G04 Gerber Fmt 4.6, Leading zero omitted, Abs format (unit mm)*
G04 Created by KiCad (PCBNEW 4.0.1-2.fc23-product) date Tue 22 Mar 2016 11:12:51 PM CET*
%MOMM*%
G01*
G04 APERTURE LIST*
%ADD10C,0.100000*%
%ADD11C,0.150000*%
G04 APERTURE END LIST*
D10*
D11*
X15240000Y26035000D02*
X15240000Y15875000D01*
X15240000Y15875000D02*
X17780000Y15875000D01*
X17780000Y15875000D02*
X17780000Y26035000D01*
X14960000Y28855000D02*
X14960000Y27305000D01*
X15240000Y26035000D02*
X17780000Y26035000D01*
X18060000Y27305000D02*
X18060000Y28855000D01*
X18060000Y28855000D02*
X14960000Y28855000D01*
X17018000Y9398000D02*
X16256000Y9398000D01*
X16256000Y9398000D02*
X16256000Y10922000D01*
X16256000Y10922000D02*
X17018000Y10922000D01*
X5842000Y7874000D02*
X5842000Y12446000D01*
X5842000Y12446000D02*
X17018000Y12446000D01*
X17018000Y12446000D02*
X17018000Y7874000D01*
X17018000Y7874000D02*
X5842000Y7874000D01*
X1270000Y20955000D02*
X1270000Y28575000D01*
X3810000Y20955000D02*
X3810000Y28575000D01*
X4090000Y18135000D02*
X4090000Y19685000D01*
X1270000Y28575000D02*
X3810000Y28575000D01*
X3810000Y20955000D02*
X1270000Y20955000D01*
X990000Y19685000D02*
X990000Y18135000D01*
X990000Y18135000D02*
X4090000Y18135000D01*
X10668095Y10072619D02*
X10668095Y9263095D01*
X10715714Y9167857D01*
X10763333Y9120238D01*
X10858571Y9072619D01*
X11049048Y9072619D01*
X11144286Y9120238D01*
X11191905Y9167857D01*
X11239524Y9263095D01*
X11239524Y10072619D01*
X12239524Y9072619D02*
X11668095Y9072619D01*
X11953809Y9072619D02*
X11953809Y10072619D01*
X11858571Y9929762D01*
X11763333Y9834524D01*
X11668095Y9786905D01*
X4722381Y10136905D02*
X3722381Y10136905D01*
X3722381Y10517858D01*
X3770000Y10613096D01*
X3817619Y10660715D01*
X3912857Y10708334D01*
X4055714Y10708334D01*
X4150952Y10660715D01*
X4198571Y10613096D01*
X4246190Y10517858D01*
X4246190Y10136905D01*
X3722381Y11041667D02*
X3722381Y11660715D01*
X4103333Y11327381D01*
X4103333Y11470239D01*
X4150952Y11565477D01*
X4198571Y11613096D01*
X4293810Y11660715D01*
X4531905Y11660715D01*
X4627143Y11613096D01*
X4674762Y11565477D01*
X4722381Y11470239D01*
X4722381Y11184524D01*
X4674762Y11089286D01*
X4627143Y11041667D01*
M02*
