%TF.GenerationSoftware,KiCad,Pcbnew,4.0.1-2.fc23-product*%
%TF.CreationDate,2016-03-22T23:12:51+01:00*%
%TF.ProjectId,router_board_v1,726F757465725F626F6172645F76312E,rev?*%
%TF.FileFunction,Copper,L2,Bot,Signal*%
%FSLAX46Y46*%
G04 Gerber Fmt 4.6, Leading zero omitted, Abs format (unit mm)*
G04 Created by KiCad (PCBNEW 4.0.1-2.fc23-product) date Tue 22 Mar 2016 11:12:51 PM CET*
%MOMM*%
G01*
G04 APERTURE LIST*
%ADD10C,0.100000*%
%ADD11R,2.032000X1.727200*%
%ADD12O,2.032000X1.727200*%
%ADD13C,1.200000*%
%ADD14C,1.000000*%
G04 APERTURE END LIST*
D10*
D11*
X16510000Y27305000D03*
D12*
X16510000Y24765000D03*
X16510000Y22225000D03*
X16510000Y19685000D03*
X16510000Y17145000D03*
D11*
X2540000Y19685000D03*
D12*
X2540000Y22225000D03*
X2540000Y24765000D03*
X2540000Y27305000D03*
D13*
X5080000Y13335000D03*
X1905000Y3810000D03*
X1905000Y29210000D03*
X17145000Y3810000D03*
X17145000Y29210000D03*
X12700000Y16510000D03*
X13335000Y10160000D03*
X9525000Y3810000D03*
X15875000Y11430000D03*
D14*
X4445000Y15875000D02*
X4445000Y13970000D01*
X4445000Y13970000D02*
X5080000Y13335000D01*
X635000Y15875000D02*
X4445000Y15875000D01*
X4445000Y15875000D02*
X6604000Y18034000D01*
X6604000Y18034000D02*
X14732000Y18034000D01*
X14732000Y18034000D02*
X15621000Y17145000D01*
X15621000Y17145000D02*
X16510000Y17145000D01*
X635000Y29210000D02*
X635000Y15875000D01*
X635000Y15875000D02*
X635000Y15240000D01*
X635000Y15240000D02*
X635000Y3810000D01*
X1905000Y29210000D02*
X635000Y29210000D01*
X635000Y3810000D02*
X1905000Y3810000D01*
X18415000Y3810000D02*
X18415000Y29210000D01*
X17145000Y3810000D02*
X18415000Y3810000D01*
X18415000Y29210000D02*
X17145000Y29210000D01*
X2540000Y19685000D02*
X16510000Y19685000D01*
X2540000Y22225000D02*
X16510000Y22225000D01*
X2540000Y24765000D02*
X16510000Y24765000D01*
X2540000Y27305000D02*
X16510000Y27305000D01*
X13335000Y10160000D02*
X13335000Y15875000D01*
X13335000Y15875000D02*
X12700000Y16510000D01*
X15875000Y11430000D02*
X15875000Y10160000D01*
X15875000Y10160000D02*
X9525000Y3810000D01*
M02*
